<svg width="32" height="32" viewBox="0 0 32 32" fill="none" xmlns="http://www.w3.org/2000/svg">
<path opacity="0.9" fill-rule="evenodd" clip-rule="evenodd" d="M13.0002 9V12H14.0002V9H13.0002ZM22.1033 9.89644C20.9416 8.73468 19.058 8.73468 17.8962 9.89646L15.1463 12.6464L15.8534 13.3535L18.6033 10.6036C19.3745 9.83232 20.625 9.83231 21.3962 10.6036C22.1674 11.3748 22.1675 12.6252 21.3962 13.3964L18.6463 16.1464L19.3534 16.8535L22.1033 14.1035C23.2651 12.9418 23.2651 11.0582 22.1033 9.89644ZM9.89639 22.1035C8.73463 20.9418 8.73462 19.0582 9.89638 17.8964L12.6464 15.1464L13.3535 15.8535L10.6035 18.6035C9.83226 19.3748 9.83226 20.6252 10.6035 21.3964C11.3747 22.1677 12.6251 22.1677 13.3964 21.3964L16.1464 18.6464L16.8535 19.3535L14.1035 22.1035C12.9417 23.2653 11.0581 23.2653 9.89639 22.1035ZM22.9998 19H19.9998V18H22.9998V19ZM19.0004 20V23H18.0004V20H19.0004ZM11.9998 13H8.99976V14H11.9998V13Z" fill="black" fill-opacity="0.8"/>
</svg>
