<svg width="32" height="32" viewBox="0 0 32 32" fill="none" xmlns="http://www.w3.org/2000/svg">
<path fill-rule="evenodd" clip-rule="evenodd" d="M11 16C11 14.067 12.567 12.5 14.5 12.5C14.8494 12.5 15.187 12.5512 15.5055 12.6465C14.5817 13.4701 14 14.6669 14 16C14 17.3331 14.5817 18.5299 15.5055 19.3535C15.187 19.4488 14.8494 19.5 14.5 19.5C12.567 19.5 11 17.933 11 16ZM16.5052 20.0296C17.1116 20.3307 17.7954 20.5 18.5186 20.5C20.1909 20.5 21.6514 19.5949 22.4323 18.2505L21.5677 17.7482C20.9591 18.7958 19.8218 19.5 18.5186 19.5C18.1652 19.5 17.8241 19.4482 17.5024 19.3519C17.856 19.035 18.1591 18.663 18.3981 18.2497C18.7657 17.6063 18.9952 16.7975 19 16C18.9952 15.2025 18.7657 14.3937 18.3981 13.7503C18.1591 13.337 17.856 12.965 17.5024 12.6481C17.8241 12.5518 18.1652 12.5 18.5186 12.5C19.8218 12.5 20.9591 13.2042 21.5677 14.2518L22.4323 13.7495C21.6514 12.4051 20.1909 11.5 18.5186 11.5C17.7954 11.5 17.1116 11.6693 16.5052 11.9704C15.9015 11.6694 15.2206 11.5 14.5 11.5C12.0147 11.5 10 13.5147 10 16C10 18.4853 12.0147 20.5 14.5 20.5C15.2206 20.5 15.9015 20.3306 16.5052 20.0296ZM16.504 13.13C16.9231 13.4232 17.2751 13.806 17.5324 14.2509C17.845 14.784 18.0048 15.3409 18 16C18.0048 16.6591 17.845 17.216 17.5324 17.7491C17.2751 18.194 16.9231 18.5768 16.504 18.87C15.5943 18.2368 15 17.1867 15 16C15 14.8133 15.5943 13.7632 16.504 13.13Z" fill="black" fill-opacity="0.8"/>
</svg>
