<svg width="32" height="32" viewBox="0 0 32 32" fill="none" xmlns="http://www.w3.org/2000/svg">
<path d="M21.4329 13.7782C21.5349 13.7782 21.5689 13.7272 21.5859 13.6422L21.7559 13.0472C21.7899 12.9792 21.7389 12.8942 21.6369 12.8942H19.2739L19.4099 11.2282C19.5459 9.4942 18.3899 8.3042 15.9079 8.3042C13.6129 8.3042 12.3379 9.4602 12.3379 10.8882C12.3379 11.5852 12.7119 12.1972 13.4769 12.6732V12.7072C12.1509 12.7072 11.0459 13.6082 11.0459 14.7812C11.0459 16.1242 12.0489 16.6512 13.0519 16.9402C14.3269 17.2972 14.7009 17.7392 14.7009 18.5042C14.7009 19.3032 13.9529 19.6602 13.3579 19.6602C12.4569 19.6602 12.2189 19.2352 11.8789 18.6062L11.4539 17.7732C11.4199 17.6882 11.3689 17.6542 11.3009 17.6712L11.0799 17.7222C11.0119 17.7392 10.9609 17.7732 10.9779 17.8582L11.2669 19.4732C11.2839 19.5582 11.2839 19.6602 11.3689 19.7112C11.5729 19.8642 12.2529 20.2042 13.0859 20.2042C14.5309 20.2042 15.6529 19.3372 15.6699 17.9602C15.6529 16.6512 14.8709 16.1412 13.6299 15.7842C12.7969 15.5462 11.9979 15.3592 11.9979 14.3732C11.9979 13.6422 12.6609 13.2512 13.3069 13.2512C13.9699 13.2512 14.2929 13.5912 14.4969 13.9142L15.0749 14.6962C15.1259 14.7812 15.1599 14.7982 15.2279 14.7812L15.4319 14.7132C15.5169 14.6792 15.5509 14.6282 15.5509 14.5602L15.2959 13.3702C15.2789 13.2682 15.2449 13.1832 14.9899 13.0642C14.7689 12.9622 14.4459 12.8602 14.2079 12.7582C13.6299 12.3162 13.2219 11.6702 13.2219 10.9222C13.2219 9.5792 14.4459 8.9332 15.9419 8.9332C17.4379 8.9332 18.4409 9.6812 18.4239 11.3812C18.4069 12.3502 17.8799 13.0302 17.0129 13.3192C16.8089 13.3872 16.7069 13.4382 16.7069 13.5742C16.7069 13.7102 16.8089 13.7782 16.9619 13.7782H17.9989C17.9819 14.4922 17.9649 15.6482 17.9649 15.9542V16.3282C17.9649 16.5662 17.9139 18.0622 17.9139 18.7592C17.9139 19.4052 18.7299 20.2042 19.5629 20.2042C20.5829 20.2042 21.2799 19.6942 21.4499 19.5242C21.5009 19.4732 21.5349 19.4052 21.4839 19.3372L21.3989 19.1842C21.3479 19.1162 21.2799 19.0992 21.1949 19.1502C20.9569 19.3032 20.4639 19.3712 20.0729 19.3712C19.7669 19.3712 19.1889 19.1502 19.1889 17.8752V16.1752C19.1889 15.3932 19.2059 14.5602 19.2399 13.7782H21.4329Z" fill="black" fill-opacity="0.8"/>
</svg>
