<svg width="32" height="32" viewBox="0 0 32 32" fill="none" xmlns="http://www.w3.org/2000/svg">
<path fill-rule="evenodd" clip-rule="evenodd" d="M8 11H15V21H8V11ZM7 10H8H15H16V11V21V22H15H8H7V21V11V10ZM9 13.5657L11.2226 12.084L11.3486 12H12V12.5V19H14V20H9V19H11V13.4343L9 14.7676V13.5657Z" fill="black" fill-opacity="0.8"/>
<path fill-rule="evenodd" clip-rule="evenodd" d="M18 11H25V21H18V11ZM17 10H18H25H26V11V21V22H25H18H17V21V11V10ZM24.0449 20H18.998V19.2969L21.6387 16.4062C22.5645 15.3945 22.998 14.8477 22.998 14.1094C22.998 13.2656 22.334 12.7344 21.4668 12.7344C20.541 12.7344 19.9512 13.3398 19.9512 14.25H19.0293C19.0293 12.8438 20.0957 11.8906 21.498 11.8906C22.9043 11.8906 23.9043 12.875 23.9043 14.1094C23.9043 14.9961 23.498 15.6836 22.123 17.1562L20.3262 19.0781V19.1406H24.0449V20Z" fill="black" fill-opacity="0.8"/>
</svg>
