<svg width="32" height="32" viewBox="0 0 32 32" fill="none" xmlns="http://www.w3.org/2000/svg">
<path fill-rule="evenodd" clip-rule="evenodd" d="M12 20H12.5H12.5088H12.5176H12.5265H12.5354H12.5443H12.5533H12.5623H12.5713H12.5804H12.5895H12.5986H12.6078H12.617H12.6262H12.6355H12.6448H12.6541H12.6634H12.6728H12.6822H12.6917H12.7012H12.7107H12.7202H12.7298H12.7394H12.749H12.7586H12.7683H12.778H12.7878H12.7975H12.8073H12.8171H12.827H12.8369H12.8468H12.8567H12.8667H12.8766H12.8866H12.8967H12.9067H12.9168H12.9269H12.9371H12.9472H12.9574H12.9676H12.9779H12.9881H12.9984H13.0087H13.0191H13.0294H13.0398H13.0502H13.0606H13.0711H13.0816H13.0921H13.1026H13.1131H13.1237H13.1342H13.1448H13.1555H13.1661H13.1768H13.1875H13.1982H13.2089H13.2196H13.2304H13.2412H13.252H13.2628H13.2737H13.2845H13.2954H13.3063H13.3172H13.3282H13.3391H13.3501H13.3611H13.3721H13.3831H13.3941H13.4052H13.4162H13.4273H13.4384H13.4495H13.4607H13.4718H13.483H13.4942H13.5054H13.5166H13.5278H13.539H13.5503H13.5615H13.5728H13.5841H13.5954H13.6067H13.618H13.6294H13.6407H13.6521H13.6635H13.6749H13.6863H13.6977H13.7091H13.7205H13.732H13.7434H13.7549H13.7664H13.7779H13.7893H13.8008H13.8124H13.8239H13.8354H13.8469H13.8585H13.8701H13.8816H13.8932H13.9048H13.9164H13.9279H13.9395H13.9512H13.9628H13.9744H13.986H13.9976H14.0093H14.0209H14.0326H14.0442H14.0559H14.0676H14.0792H14.0909H14.1026H14.1143H14.1259H14.1376H14.1493H14.161H14.1727H14.1844H14.1961H14.2078H14.2195H14.2312H14.243H14.2547H14.2664H14.2781H14.2898H14.3015H14.3132H14.325H14.3367H14.3484H14.3601H14.3718H14.3836H14.3953H14.407H14.4187H14.4304H14.4421H14.4538H14.4655H14.4772H14.489H14.5007H14.5123H14.524H14.5357H14.5474H14.5591H14.5708H14.5825H14.5941H14.6058H14.6175H14.6291H14.6408H14.6524H14.6641H14.6757H14.6873H14.6989H14.7106H14.7222H14.7338H14.7454H14.757H14.7686H14.7801H14.7917H14.8033H14.8148H14.8264H14.8379H14.8494H14.8609H14.8724H14.8839H14.8954H14.9069H14.9184H14.9298H14.9413H14.9527H14.9642H14.9756H14.987H14.9984H15.0098H15.0211H15.0325H15.0438H15.0552H15.0665H15.0778H15.0891H15.1004H15.1117H15.1229H15.1342H15.1454H15.1566H15.1678H15.179H15.1902H15.2013H15.2125H15.2236H15.2347H15.2458H15.2569H15.2679H15.279H15.29H15.301H15.312H15.323H15.334H15.3449H15.3558H15.3668H15.3776H15.3885H15.3994H15.4102H15.421H15.4318H15.4426H15.4534H15.4641H15.4748H15.4855H15.4962H15.5068H15.5175H15.5281H15.5387H15.5493H15.5598H15.5703H15.5809H15.5913H15.6018H15.6122H15.6227H15.6331H15.6434H15.6538H15.6641H15.6744H15.6847H15.6949H15.7052H15.7154H15.7255H15.7357H15.7458H15.7559H15.766H15.776H15.7861H15.7961H15.806H15.816H15.8259H15.8358H15.8457H15.8555H15.8653H15.8751H15.8849H15.8946H15.9043H15.9139H15.9236H15.9332H15.9428H15.9523H15.9619H15.9714H15.9808H15.9902H15.9996H16.009H16.0184H16.0277H16.037H16.0462H16.0554H16.0646H16.0737H16.0829H16.092H16.101H16.11H16.119H16.128H16.1369H16.1458H16.1546H16.1635H16.1722H16.181H16.1897H16.1984H16.207H16.2157H16.2242H16.2328H16.2413H16.2497H16.2582H16.2666H16.2749H16.2832H16.2915H16.2998H16.308H16.3162H16.3243H16.3324H16.3405H16.3485H16.3565H16.3644H16.3723H16.3802H16.388H16.3958H16.4035H16.4112H16.4189H16.4265H16.4341H16.4416H16.4491H16.4566H16.464H16.4714H16.4787H16.486H16.4933H16.5005H16.5076H16.5148H16.5218H16.5289H16.5359H16.5428H16.5497H16.5566H16.5634H16.5702H16.5769H16.5836H16.5902H16.5968H16.6033H16.6098H16.6163H16.6227H16.6291H16.6354H16.6417H16.6479H16.654H16.6602H16.6663H16.6723H16.6783H16.6842H16.6901H16.6959H16.7017H16.7075H16.7132H16.7188H16.7244H16.7299H16.7354H16.7409H16.7463H16.7516H16.7569H16.7621H16.7673H16.7725H16.7775H16.7826H16.7876H16.7925H16.7974H16.8022H16.807H16.8117H16.8163H16.821H16.8255H16.83H16.8345H16.8389H16.8432H16.8475H16.8517H16.8559H16.86H16.8641H16.8681H16.8721H16.876H16.8798H16.8836H16.8873H16.891H16.8946H16.8982H16.9017H16.9051H16.9085H16.9118H16.9151H16.9183H16.9215H16.9246H16.9276H16.9306H16.9335H16.9364H16.9392H16.9419H16.9446H16.9472H16.9497H16.9522H16.9547H16.9571H16.9594H16.9616H16.9638H16.9659H16.968H16.97H16.9719H16.9738H16.9756H16.9774H16.9791H16.9807H16.9822H16.9837H16.9852H16.9865H16.9878H16.9891H16.9902H16.9913H16.9924H16.9934H16.9943H16.9951H16.9959H16.9966H16.9972H16.9978H16.9983H16.9988H16.9991H16.9995H16.9997H16.9999H17L17 19.5L17 19H16.9999H16.9997H16.9995H16.9991H16.9988H16.9983H16.9978H16.9972H16.9966H16.9959H16.9951H16.9943H16.9934H16.9924H16.9913H16.9902H16.9891H16.9878H16.9865H16.9852H16.9837H16.9822H16.9807H16.9791H16.9774H16.9756H16.9738H16.9719H16.97H16.968H16.9659H16.9638H16.9616H16.9594H16.9571H16.9547H16.9522H16.9497H16.9472H16.9446H16.9419H16.9392H16.9364H16.9335H16.9306H16.9276H16.9246H16.9215H16.9183H16.9151H16.9118H16.9085H16.9051H16.9017H16.8982H16.8946H16.891H16.8873H16.8836H16.8798H16.876H16.8721H16.8681H16.8641H16.86H16.8559H16.8517H16.8475H16.8432H16.8389H16.8345H16.83H16.8255H16.821H16.8163H16.8117H16.807H16.8022H16.7974H16.7925H16.7876H16.7826H16.7775H16.7725H16.7673H16.7621H16.7569H16.7516H16.7463H16.7409H16.7354H16.7299H16.7244H16.7188H16.7132H16.7075H16.7017H16.6959H16.6901H16.6842H16.6783H16.6723H16.6663H16.6602H16.654H16.6479H16.6417H16.6354H16.6291H16.6227H16.6163H16.6098H16.6033H16.5968H16.5902H16.5836H16.5769H16.5702H16.5634H16.5566H16.5497H16.5428H16.5359H16.5289H16.5218H16.5148H16.5076H16.5005H16.4933H16.486H16.4787H16.4714H16.464H16.4566H16.4491H16.4416H16.4341H16.4265H16.4189H16.4112H16.4035H16.3958H16.388H16.3802H16.3723H16.3644H16.3565H16.3485H16.3405H16.3324H16.3243H16.3162H16.308H16.2998H16.2915H16.2832H16.2749H16.2666H16.2582H16.2497H16.2413H16.2328H16.2242H16.2157H16.207H16.1984H16.1897H16.181H16.1722H16.1635H16.1546H16.1458H16.1369H16.128H16.119H16.11H16.101H16.092H16.0829H16.0737H16.0646H16.0554H16.0462H16.037H16.0277H16.0184H16.009H15.9996H15.9902H15.9808H15.9714H15.9619H15.9523H15.9428H15.9332H15.9236H15.9139H15.9043H15.8946H15.8849H15.8751H15.8653H15.8555H15.8457H15.8358H15.8259H15.816H15.806H15.7961H15.7861H15.776H15.766H15.7559H15.7458H15.7357H15.7255H15.7154H15.7052H15.6949H15.6847H15.6744H15.6641H15.6538H15.6434H15.6331H15.6227H15.6122H15.6018H15.5913H15.5809H15.5703H15.5598H15.5493H15.5387H15.5281H15.5175H15.5068H15.4962H15.4855H15.4748H15.4641H15.4534H15.4426H15.4318H15.421H15.4102H15.3994H15.3885H15.3776H15.3668H15.3558H15.3449H15.334H15.323H15.312H15.301H15.29H15.279H15.2679H15.2569H15.2458H15.2347H15.2236H15.2125H15.2013H15.1902H15.179H15.1678H15.1566H15.1454H15.1342H15.1229H15.1117H15.1004H15.0891H15.0778H15.0665H15.0552H15.0438H15.0325H15.0211H15.0098H14.9984H14.987H14.9756H14.9642H14.9527H14.9413H14.9298H14.9184H14.9069H14.8954H14.8839H14.8724H14.8609H14.8494H14.8379H14.8264H14.8148H14.8033H14.7917H14.7801H14.7686H14.757H14.7454H14.7338H14.7222H14.7106H14.6989H14.6873H14.6757H14.6641H14.6524H14.6408H14.6291H14.6175H14.6058H14.5941H14.5825H14.5708H14.5591H14.5474H14.5357H14.524H14.5123H14.5007H14.489H14.4772H14.4655H14.4538H14.4421H14.4304H14.4187H14.407H14.3953H14.3836H14.3718H14.3601H14.3484H14.3367H14.325H14.3132H14.3015H14.2898H14.2781H14.2664H14.2547H14.243H14.2312H14.2195H14.2078H14.1961H14.1844H14.1727H14.161H14.1493H14.1376H14.1259H14.1143H14.1026H14.0909H14.0792H14.0676H14.0559H14.0442H14.0326H14.0209H14.0093H13.9976H13.986H13.9744H13.9628H13.9512H13.9395H13.9279H13.9164H13.9048H13.8932H13.8816H13.8701H13.8585H13.8469H13.8354H13.8239H13.8124H13.8008H13.7893H13.7779H13.7664H13.7549H13.7434H13.732H13.7205H13.7091H13.6977H13.6863H13.6749H13.6635H13.6521H13.6407H13.6294H13.618H13.6067H13.5954H13.5841H13.5728H13.5615H13.5503H13.539H13.5278H13.5166H13.5054H13.4942H13.483H13.4718H13.4607H13.4495H13.4384H13.4273H13.4162H13.4052H13.3941H13.3831H13.3721H13.3611H13.3501H13.3391H13.3282H13.3172H13.3063H13.2954H13.2845H13.2737H13.2628H13.252H13.2412H13.2304H13.2196H13.2089H13.2049C13.6899 17.8617 14.4392 17.2999 15.1651 16.7796L15.2466 16.7213C15.6436 16.4375 16.0749 16.1292 16.4 15.7331C16.7696 15.2829 16.9975 14.7307 16.9975 13.9858V13.9855C16.9966 12.6104 15.8769 11.5 14.5 11.5C13.1234 11.5 12.0025 12.6102 12.0025 13.9858H13.0025C13.0025 13.168 13.6702 12.5 14.5 12.5C15.3295 12.5 15.997 13.1678 15.9975 13.9861C15.9974 14.4981 15.8507 14.8262 15.627 15.0986C15.3885 15.3892 15.0584 15.6258 14.6225 15.9381L14.6225 15.9381L14.6225 15.9381L14.5824 15.9668C13.6837 16.6111 12.5671 17.4449 12.0192 19.3626L12 19.43V20ZM7 14.5657L9.22265 13.084L9.34861 13H10V13.5V20H9V14.4343L7 15.7676V14.5657ZM23.8845 13.8201L24 13.6815V13H23.5004H19.0004V14H22.4329L20.6163 16.1799L19.9329 17H21.0004C22.1036 17 23.0234 17.9233 23.0234 19.0177C23.0234 20.103 22.1128 21 21.0004 21C19.9046 21 19.0234 20.1019 19.0234 19H18.0234C18.0234 20.6399 19.3382 22 21.0004 22C22.6459 22 24.0234 20.6743 24.0234 19.0177C24.0234 17.6964 23.1432 16.5532 21.9408 16.1525L23.8845 13.8201Z" fill="black" fill-opacity="0.8"/>
</svg>
