<svg width="32" height="32" viewBox="0 0 32 32" fill="none" xmlns="http://www.w3.org/2000/svg">
<path fill-rule="evenodd" clip-rule="evenodd" d="M19.411 11.2864L12.411 21.2864L11.5918 20.7129L18.5918 10.7129L19.411 11.2864ZM19.9989 21.0798C21.2432 21.0798 22.1495 20.3667 22.1466 19.3837C22.1495 18.6565 21.6949 18.1337 20.8796 18.0173V17.9718C21.5103 17.8354 21.9336 17.3667 21.9307 16.7133C21.9336 15.8269 21.1779 15.1025 20.016 15.1025C18.8853 15.1025 18.0103 15.7758 17.9875 16.7502H19.0017C19.0188 16.2616 19.4733 15.9576 20.0103 15.9576C20.5529 15.9576 20.9137 16.2871 20.9108 16.7758C20.9137 17.2843 20.4932 17.6224 19.891 17.6224H19.3767V18.4349H19.891C20.6267 18.4349 21.0642 18.8042 21.0614 19.3298C21.0642 19.844 20.6182 20.1962 19.9961 20.1962C19.4108 20.1962 18.9591 19.8923 18.9336 19.4178H17.8654C17.8938 20.4008 18.7716 21.0798 19.9989 21.0798ZM10.94 12.1392C10.7279 12.3194 10.2809 12.562 9.89453 12.6098V11.8194C10.537 11.6465 10.8576 11.1987 10.975 11.0348L10.975 11.0348L10.9751 11.0347C10.985 11.0208 10.9935 11.009 11.0006 10.9995H12.002L12.002 16.9995H11.002L11.002 14.9995H11.0006V12.1392H10.94Z" fill="black" fill-opacity="0.8"/>
</svg>
