<svg width="32" height="32" viewBox="0 0 32 32" fill="none" xmlns="http://www.w3.org/2000/svg">
<path d="M12.001 20V14H10.9995V13H12.001V12.4272C12.001 11.6909 12.1978 11.1217 12.5913 10.7197C12.9849 10.3177 13.4588 10.1167 14.1782 10.1167C14.4491 10.1167 14.7178 10.1527 14.9844 10.2246L14.9209 11.1768C14.722 11.1387 14.5104 11.1196 14.2861 11.1196C13.9053 11.1196 13.5179 11.2318 13.3105 11.4561C13.1032 11.6761 12.9995 11.9935 12.9995 12.4082V13H16.001V12.5479C16.001 11.7819 16.2189 11.1852 16.6548 10.7578C17.0949 10.3304 17.7148 10.1167 18.5146 10.1167C19.3762 10.1167 20.2746 10.4209 20.858 10.7197L20.4496 11.6111C19.9496 11.3721 19.3645 11.1768 18.5972 11.1768C18.0936 11.1768 17.5539 11.2889 17.3296 11.5132C17.1095 11.7375 16.9995 12.0781 16.9995 12.5352V13H17.9995V14H16.9995V20H16.001V14H12.9995V20H12.001ZM20.9995 20H19.9995V13H20.9995V20Z" fill="black" fill-opacity="0.8"/>
</svg>
