<svg width="16" height="16" viewBox="0 0 16 16" fill="none" xmlns="http://www.w3.org/2000/svg">
<path fill-rule="evenodd" clip-rule="evenodd" d="M5.5 10C7.45933 10 9.12619 8.74779 9.74394 7H10.793C10.14 9.30851 8.01755 11 5.5 11C2.46243 11 0 8.53757 0 5.5C0 2.46243 2.46243 0 5.5 0C8.01755 0 10.14 1.6915 10.793 4H9.74394C9.12619 2.25221 7.45933 1 5.5 1C3.01472 1 1 3.01472 1 5.5C1 7.98528 3.01472 10 5.5 10ZM10.5 15C12.9853 15 15 12.9853 15 10.5C15 8.01472 12.9853 6 10.5 6C8.54067 6 6.87381 7.25221 6.25606 9H5.20703C5.85996 6.69149 7.98244 5 10.5 5C13.5376 5 16 7.46243 16 10.5C16 13.5376 13.5376 16 10.5 16C7.98244 16 5.85996 14.3085 5.20703 12H6.25606C6.87381 13.7478 8.54067 15 10.5 15Z" fill="black" fill-opacity="0.8"/>
</svg>
