<svg width="16" height="16" viewBox="0 0 16 16" fill="none" xmlns="http://www.w3.org/2000/svg">
<path fill-rule="evenodd" clip-rule="evenodd" d="M11.1464 2.85359L12.6445 4.35167C10.9086 4.24933 9.72357 4.53454 8.90904 5.12692C7.88 5.87531 7.573 7.02259 7.38356 8.03289C7.34527 8.2371 7.31265 8.4304 7.28109 8.61738L7.28108 8.61743L7.28108 8.61745C7.22974 8.9216 7.18122 9.20903 7.11575 9.49947C7.01349 9.95316 6.8849 10.3322 6.68936 10.635C6.50105 10.9266 6.24228 11.1607 5.84675 11.3158C5.60805 11.4094 5.31095 11.4775 4.93844 11.5057C4.7184 10.6402 3.93396 10 3 10C1.89543 10 1 10.8955 1 12C1 13.1046 1.89543 14 3 14C3.92894 14 4.70996 13.3667 4.93484 12.5083C5.42312 12.4781 5.84582 12.3903 6.21184 12.2468C6.81241 12.0113 7.23332 11.636 7.52939 11.1776C7.81823 10.7303 7.9787 10.2188 8.09128 9.71936C8.16151 9.40778 8.21931 9.06705 8.27476 8.74017L8.27477 8.74017L8.27477 8.74015C8.30547 8.55915 8.33546 8.38239 8.36644 8.21718C8.552 7.22748 8.8075 6.43726 9.49721 5.93566C10.0926 5.50263 11.1061 5.21876 12.9188 5.37409L11.1464 7.14648L11.8536 7.85359L14.3536 5.35359L14.7071 5.00004L14.3536 4.64648L11.8536 2.14648L11.1464 2.85359ZM4 12C4 11.4478 3.55228 11 3 11C2.44772 11 2 11.4478 2 12C2 12.5523 2.44772 13 3 13C3.50341 13 3.91994 12.6281 3.98972 12.144L4 12Z" fill="black" fill-opacity="0.8"/>
</svg>
