<svg width="32" height="32" viewBox="0 0 32 32" fill="none" xmlns="http://www.w3.org/2000/svg">
<path fill-rule="evenodd" clip-rule="evenodd" d="M23 16C23 19.866 19.866 23 16 23C12.134 23 9 19.866 9 16C9 12.134 12.134 9 16 9C19.866 9 23 12.134 23 16ZM24 16C24 20.4183 20.4183 24 16 24C11.5817 24 8 20.4183 8 16C8 11.5817 11.5817 8 16 8C20.4183 8 24 11.5817 24 16ZM15.9111 18.8654L19.9111 14.3655L19.0889 13.6347L15.4764 17.6986L12.8889 15.1112L12.1111 15.889L15.1111 18.8889L15.5236 19.3014L15.9111 18.8654Z" fill="black" fill-opacity="0.8"/>
</svg>
