<svg width="32" height="32" viewBox="0 0 32 32" fill="none" xmlns="http://www.w3.org/2000/svg">
<path fill-rule="evenodd" clip-rule="evenodd" d="M16.0002 19C13.7003 19 11.678 17.8058 10.5218 16C11.678 14.1942 13.7003 13 16.0002 13C18.3 13 20.3223 14.1942 21.4785 16C20.3223 17.8058 18.3 19 16.0002 19ZM16.0002 12C18.8782 12 21.3776 13.6211 22.6351 16C21.3776 18.3789 18.8782 20 16.0002 20C13.1221 20 10.6227 18.3789 9.36523 16C10.6227 13.6211 13.1221 12 16.0002 12ZM16.0005 18C17.1051 18 18.0005 17.1046 18.0005 16C18.0005 14.8954 17.1051 14 16.0005 14C14.8959 14 14.0005 14.8954 14.0005 16C14.0005 17.1046 14.8959 18 16.0005 18Z" fill="black" fill-opacity="0.8"/>
</svg>
